<?xml version="1.0" encoding="UTF-8" standalone="no"?>
<!DOCTYPE svg PUBLIC "-//W3C//DTD SVG 1.1//EN"
 "http://www.w3.org/Graphics/SVG/1.1/DTD/svg11.dtd">
<!-- Generated by graphviz version 2.40.1 (20161225.0304)
 -->
<!-- Title: D Pages: 1 -->
<svg width="462pt" height="352pt"
 viewBox="0.00 0.00 462.00 352.09" xmlns="http://www.w3.org/2000/svg" xmlns:xlink="http://www.w3.org/1999/xlink">
<g id="graph0" class="graph" transform="scale(1 1) rotate(0) translate(4 348.0908)">
<title>D</title>
<!-- 0 -->
<g id="node1" class="node">
<title>0</title>
<polygon fill="#3f2b2c" stroke="#e47070" stroke-width="4" points="54,-322.0454 40.5,-344.1363 13.5,-344.1363 0,-322.0454 13.5,-299.9545 40.5,-299.9545 54,-322.0454"/>
<text text-anchor="middle" x="27" y="-317.9454" font-family="Courier New Bold" font-size="17.00" fill="#ec3047">0</text>
</g>
<!-- 1 -->
<g id="node2" class="node">
<title>1</title>
<polygon fill="#3f2b2c" stroke="#8bcd88" stroke-width="4" points="54,-22.0454 40.5,-44.1363 13.5,-44.1363 0,-22.0454 13.5,.0455 40.5,.0455 54,-22.0454"/>
<text text-anchor="middle" x="27" y="-17.9454" font-family="Courier New Bold" font-size="17.00" fill="#ec3047">1</text>
</g>
<!-- 0&#45;&#45;1 -->
<g id="edge1" class="edge">
<title>0&#45;&#45;1</title>
<path fill="none" stroke="#3f2b2c" stroke-width="3" d="M27,-299.9857C27,-244.5065 27,-99.6513 27,-44.1375"/>
<text text-anchor="middle" x="15.5" y="-175.4616" font-family="Courier New Bold" font-size="12.00" fill="#000000">10 </text>
</g>
<!-- 3 -->
<g id="node4" class="node">
<title>3</title>
<polygon fill="#3f2b2c" stroke="#8bcd88" stroke-width="4" points="254,-22.0454 240.5,-44.1363 213.5,-44.1363 200,-22.0454 213.5,.0455 240.5,.0455 254,-22.0454"/>
<text text-anchor="middle" x="227" y="-17.9454" font-family="Courier New Bold" font-size="17.00" fill="#ec3047">3</text>
</g>
<!-- 0&#45;&#45;3 -->
<g id="edge2" class="edge">
<title>0&#45;&#45;3</title>
<path fill="none" stroke="#3f2b2c" stroke-width="3" d="M41.3835,-300.4701C78.285,-245.1179 175.9889,-98.562 212.7468,-43.4252"/>
<text text-anchor="middle" x="104.0652" y="-175.3477" font-family="Courier New Bold" font-size="12.00" fill="#000000">11 &#160;&#160;&#160;</text>
</g>
<!-- 5 -->
<g id="node6" class="node">
<title>5</title>
<polygon fill="#3f2b2c" stroke="#8bcd88" stroke-width="4" points="454,-22.0454 440.5,-44.1363 413.5,-44.1363 400,-22.0454 413.5,.0455 440.5,.0455 454,-22.0454"/>
<text text-anchor="middle" x="427" y="-17.9454" font-family="Courier New Bold" font-size="17.00" fill="#ec3047">5</text>
</g>
<!-- 0&#45;&#45;5 -->
<g id="edge3" class="edge">
<title>0&#45;&#45;5</title>
<path fill="none" stroke="#3f2b2c" stroke-width="3" d="M45.7563,-307.9782C112.9447,-257.5869 341.1608,-86.4248 408.2843,-36.0822"/>
<text text-anchor="middle" x="200.5203" y="-175.4302" font-family="Courier New Bold" font-size="12.00" fill="#000000">9 &#160;&#160;&#160;&#160;&#160;</text>
</g>
<!-- 2 -->
<g id="node3" class="node">
<title>2</title>
<polygon fill="#3f2b2c" stroke="#e47070" stroke-width="4" points="254,-322.0454 240.5,-344.1363 213.5,-344.1363 200,-322.0454 213.5,-299.9545 240.5,-299.9545 254,-322.0454"/>
<text text-anchor="middle" x="227" y="-317.9454" font-family="Courier New Bold" font-size="17.00" fill="#ec3047">2</text>
</g>
<!-- 2&#45;&#45;1 -->
<g id="edge4" class="edge">
<title>2&#45;&#45;1</title>
<path fill="none" stroke="#3f2b2c" stroke-width="3" d="M212.6165,-300.4701C175.715,-245.1179 78.0111,-98.562 41.2532,-43.4252"/>
<text text-anchor="middle" x="103.9348" y="-162.3477" font-family="Courier New Bold" font-size="12.00" fill="#000000">13 &#160;&#160;&#160;</text>
</g>
<!-- 2&#45;&#45;3 -->
<g id="edge5" class="edge">
<title>2&#45;&#45;3</title>
<path fill="none" stroke="#3f2b2c" stroke-width="3" d="M227,-299.9857C227,-244.5065 227,-99.6513 227,-44.1375"/>
<text text-anchor="middle" x="219" y="-47.5375" font-family="Courier New Bold" font-size="12.00" fill="#000000">11</text>
</g>
<!-- 2&#45;&#45;5 -->
<g id="edge6" class="edge">
<title>2&#45;&#45;5</title>
<path fill="none" stroke="#3f2b2c" stroke-width="3" d="M241.3835,-300.4701C278.285,-245.1179 375.9889,-98.562 412.7468,-43.4252"/>
<text text-anchor="middle" x="308.0652" y="-175.3477" font-family="Courier New Bold" font-size="12.00" fill="#000000">7 &#160;&#160;&#160;</text>
</g>
<!-- 4 -->
<g id="node5" class="node">
<title>4</title>
<polygon fill="#3f2b2c" stroke="#e47070" stroke-width="4" points="454,-322.0454 440.5,-344.1363 413.5,-344.1363 400,-322.0454 413.5,-299.9545 440.5,-299.9545 454,-322.0454"/>
<text text-anchor="middle" x="427" y="-317.9454" font-family="Courier New Bold" font-size="17.00" fill="#ec3047">4</text>
</g>
<!-- 4&#45;&#45;1 -->
<g id="edge7" class="edge">
<title>4&#45;&#45;1</title>
<path fill="none" stroke="#3f2b2c" stroke-width="3" d="M408.2437,-307.9782C341.0553,-257.5869 112.8392,-86.4248 45.7157,-36.0822"/>
<text text-anchor="middle" x="200.4797" y="-162.4302" font-family="Courier New Bold" font-size="12.00" fill="#000000"> &#160;&#160;&#160;&#160;&#160;8</text>
</g>
<!-- 4&#45;&#45;3 -->
<g id="edge8" class="edge">
<title>4&#45;&#45;3</title>
<path fill="none" stroke="#3f2b2c" stroke-width="3" d="M412.6165,-300.4701C375.715,-245.1179 278.0111,-98.562 241.2532,-43.4252"/>
<text text-anchor="middle" x="307.9348" y="-162.3477" font-family="Courier New Bold" font-size="12.00" fill="#000000">4 &#160;&#160;&#160;</text>
</g>
<!-- 4&#45;&#45;5 -->
<g id="edge9" class="edge">
<title>4&#45;&#45;5</title>
<path fill="none" stroke="#3f2b2c" stroke-width="3" d="M427,-299.9857C427,-244.5065 427,-99.6513 427,-44.1375"/>
<text text-anchor="middle" x="419" y="-175.4616" font-family="Courier New Bold" font-size="12.00" fill="#000000">2 </text>
</g>
</g>
</svg>
